<svg id="Capa_1" data-name="Capa 1" xmlns="http://www.w3.org/2000/svg" xmlns:xlink="http://www.w3.org/1999/xlink" viewBox="0 0 325.2 325.2"><defs><style>.cls-1{fill:none;}.cls-2{clip-path:url(#clip-path);}.cls-3{fill:#8ca6ba;}</style><clipPath id="clip-path"><rect class="cls-1" x="63.61" y="78.97" width="197.98" height="167.26"/></clipPath></defs><g class="cls-2"><path class="cls-3" d="M90.36,164c0,5.27,5.08,9.56,11.32,9.56S113,169.26,113,164s-5.08-9.56-11.33-9.56S90.36,158.72,90.36,164Zm16.85,0c0,2.57-2.48,4.66-5.53,4.66s-5.52-2.09-5.52-4.66,2.48-4.66,5.52-4.66S107.21,161.42,107.21,164Z"/><path class="cls-3" d="M140.2,164c0-5.27-5.08-9.56-11.32-9.56s-11.32,4.29-11.32,9.56,5.08,9.56,11.32,9.56S140.2,169.26,140.2,164Zm-16.84,0c0-2.57,2.47-4.66,5.52-4.66s5.52,2.09,5.52,4.66-2.48,4.66-5.52,4.66S123.36,166.56,123.36,164Z"/><path class="cls-3" d="M167.41,164c0-5.27-5.08-9.56-11.32-9.56s-11.33,4.29-11.33,9.56,5.08,9.56,11.33,9.56S167.41,169.26,167.41,164Zm-16.85,0c0-2.57,2.48-4.66,5.53-4.66s5.52,2.09,5.52,4.66-2.48,4.66-5.52,4.66S150.56,166.56,150.56,164Z"/><path class="cls-3" d="M194.6,164c0-5.27-5.08-9.56-11.32-9.56S172,158.72,172,164s5.08,9.56,11.32,9.56S194.6,169.26,194.6,164Zm-16.84,0c0-2.57,2.48-4.66,5.52-4.66s5.52,2.09,5.52,4.66-2.48,4.66-5.52,4.66S177.76,166.56,177.76,164Z"/><path class="cls-3" d="M233.31,80.23h-107C110.72,80.23,98,90.94,98,104.11V108H91.88c-15.59,0-28.27,10.72-28.27,23.89v60.74c0,13.17,12.68,23.89,28.27,23.89h30.24a2.48,2.48,0,1,0,0-4.9H91.88c-12.39,0-22.47-8.52-22.47-19V131.87c0-10.47,10.08-19,22.47-19h107c12.39,0,22.47,8.52,22.47,19v60.74c0,10.47-10.08,19-22.47,19a11.75,11.75,0,0,0-8.46,3.37c-11.38,11.74-24.92,20-34.28,24.94-.88.45-1.88-.32-1.42-1.11A84.47,84.47,0,0,0,163.11,219c1-3.8-2.37-7.44-7-7.44H120.8a2.48,2.48,0,1,0,0,4.9h35.31c.89,0,1.55.69,1.35,1.42a80,80,0,0,1-7.94,18.72c-3,5.19,3.88,10.47,9.68,7.43,9.73-5.09,23.83-13.73,35.72-26a5.49,5.49,0,0,1,4-1.57c15.59,0,28.27-10.72,28.27-23.89v-3.86h6.15c15.6,0,28.28-10.72,28.28-23.89V140.2a2.94,2.94,0,0,0-5.8,0v24.66c0,10.47-10.08,19-22.48,19h-6.15v-52c0-13.17-12.68-23.89-28.27-23.89H103.83v-3.87c0-10.47,10.09-19,22.48-19h107c12.4,0,22.48,8.51,22.48,19v36.32a2.94,2.94,0,0,0,5.8,0V104.11C261.59,90.94,248.91,80.23,233.31,80.23Z"/></g></svg>