<svg width="39" height="34" viewBox="0 0 39 34" fill="none" xmlns="http://www.w3.org/2000/svg">
<g clip-path="url(#clip0)">
<path d="M5.26953 17.282C5.26953 18.3541 6.26997 19.2262 7.49954 19.2262C8.72926 19.2262 9.72962 18.3541 9.72962 17.282C9.72962 16.21 8.72918 15.3379 7.49954 15.3379C6.26997 15.3379 5.26953 16.21 5.26953 17.282ZM8.58712 17.282C8.58712 17.8048 8.09924 18.2301 7.49961 18.2301C6.89999 18.2301 6.41219 17.8048 6.41219 17.282C6.41219 16.7593 6.89999 16.334 7.49961 16.334C8.09924 16.334 8.58712 16.7593 8.58712 17.282Z" fill="#8CA6BA"/>
<path d="M15.087 17.282C15.087 16.21 14.0866 15.3379 12.857 15.3379C11.6273 15.3379 10.627 16.21 10.627 17.282C10.627 18.3541 11.6274 19.2262 12.857 19.2262C14.0866 19.2262 15.087 18.3541 15.087 17.282ZM11.7695 17.282C11.7695 16.7593 12.2573 16.334 12.8569 16.334C13.4565 16.334 13.9444 16.7593 13.9444 17.282C13.9444 17.8048 13.4565 18.2301 12.8569 18.2301C12.2573 18.2301 11.7695 17.8048 11.7695 17.282Z" fill="#8CA6BA"/>
<path d="M20.4464 17.282C20.4464 16.21 19.446 15.3379 18.2163 15.3379C16.9867 15.3379 15.9863 16.21 15.9863 17.282C15.9863 18.3541 16.9868 19.2262 18.2163 19.2262C19.446 19.2262 20.4464 18.3541 20.4464 17.282ZM17.1288 17.282C17.1288 16.7593 17.6166 16.334 18.2163 16.334C18.8159 16.334 19.3038 16.7593 19.3038 17.282C19.3038 17.8048 18.8159 18.2301 18.2163 18.2301C17.6166 18.2301 17.1288 17.8048 17.1288 17.282Z" fill="#8CA6BA"/>
<path d="M25.8038 17.282C25.8038 16.21 24.8034 15.3379 23.5738 15.3379C22.3441 15.3379 21.3438 16.21 21.3438 17.282C21.3438 18.3541 22.3442 19.2262 23.5738 19.2262C24.8034 19.2262 25.8038 18.3541 25.8038 17.282ZM22.4863 17.282C22.4863 16.7593 22.9741 16.334 23.5737 16.334C24.1733 16.334 24.6612 16.7593 24.6612 17.282C24.6612 17.8048 24.1733 18.2301 23.5737 18.2301C22.9741 18.2301 22.4863 17.8048 22.4863 17.282Z" fill="#8CA6BA"/>
<path d="M33.4299 0.255859H12.3516C9.28025 0.255859 6.78143 2.43425 6.78143 5.11182V5.8974H5.57007C2.49874 5.89747 0 8.07586 0 10.7534V23.1009C0 25.7785 2.49874 27.9568 5.57007 27.9568H11.5252C11.8408 27.9568 12.0965 27.7338 12.0965 27.4588C12.0965 27.1837 11.8408 26.9607 11.5252 26.9607H5.57007C3.12876 26.9607 1.14258 25.2292 1.14258 23.1009V10.7534C1.14258 8.62511 3.12876 6.89356 5.57007 6.89356H26.6484C29.0897 6.89356 31.0759 8.62511 31.0759 10.7534V23.1009C31.0759 25.2292 29.0897 26.9607 26.6484 26.9607C25.9977 26.9607 25.3902 27.2103 24.9817 27.6455C22.741 30.0328 20.0727 31.7199 18.2288 32.7147C18.0569 32.8072 17.859 32.651 17.9494 32.4901C18.6739 31.2013 19.2294 29.8497 19.6004 28.4729C19.8082 27.7014 19.1335 26.9607 18.221 26.9607H14.1913C13.8757 26.9607 13.62 27.1837 13.62 27.4588C13.62 27.7338 13.8757 27.9568 14.1913 27.9568H18.221C18.3963 27.9568 18.5277 28.0981 18.4881 28.2452C18.1368 29.5492 17.6103 30.83 16.9234 32.0518C16.3311 33.1058 17.687 34.1784 18.8301 33.5617C20.748 32.5269 23.5255 30.77 25.866 28.2764C26.0566 28.0733 26.3418 27.9568 26.6484 27.9568C29.7198 27.9568 32.2185 25.7784 32.2185 23.1009V22.3153H33.4299C36.5013 22.3153 39 20.1369 39 17.4593V12.4477C39 12.1727 38.7443 11.9497 38.4287 11.9497C38.1131 11.9497 37.8574 12.1727 37.8574 12.4477V17.4593C37.8574 19.5876 35.8712 21.3192 33.4299 21.3192H32.2185V10.7534C32.2185 8.07586 29.7198 5.89747 26.6484 5.89747H7.92401V5.11188C7.92401 2.98356 9.91019 1.25202 12.3516 1.25202H33.4299C35.8712 1.25202 37.8574 2.98356 37.8574 5.11188V10.1235C37.8574 10.3985 38.1131 10.6215 38.4287 10.6215C38.7443 10.6215 39 10.3985 39 10.1235V5.11188C39 2.43425 36.5013 0.255859 33.4299 0.255859V0.255859Z" fill="#8CA6BA"/>
</g>
<defs>
<clipPath id="clip0">
<rect width="39" height="34" fill="white"/>
</clipPath>
</defs>
</svg>
