<?xml version="1.0" encoding="utf-8"?>
<!-- Generator: Adobe Illustrator 25.3.0, SVG Export Plug-In . SVG Version: 6.00 Build 0)  -->
<svg version="1.1" id="Calque_1" xmlns="http://www.w3.org/2000/svg" xmlns:xlink="http://www.w3.org/1999/xlink" x="0px" y="0px"
	 viewBox="0 0 383 383" style="enable-background:new 0 0 383 383;" xml:space="preserve">
<style type="text/css">
	.st0{fill:#8CA6BA;}
</style>
<path class="st0" d="M8.4,133.2L157,227l93.8,148.6c2.9,4.7,8.1,7.4,13.5,7.4c0.7,0,1.5,0,2.2-0.2c6.2-0.9,11.3-5.3,13.1-11.3
	L383.4,20.5c0.2-0.7,0.3-1.4,0.4-2.1c0-0.2,0.1-0.5,0.1-0.7c0.2-1.5,0.1-3.1-0.2-4.5c0-0.3-0.1-0.6-0.2-0.9c-0.4-1.5-0.9-3-1.7-4.3
	c0-0.1,0-0.1-0.1-0.2c-0.3-0.5-0.7-1-1-1.4c-0.2-0.2-0.3-0.5-0.5-0.7c-0.6-0.7-1.3-1.4-2-2c-0.2-0.2-0.4-0.3-0.6-0.4
	c-0.6-0.4-1.2-0.9-1.8-1.2c-0.3-0.2-0.6-0.3-0.9-0.4c-0.6-0.3-1.3-0.6-1.9-0.8c-0.2-0.1-0.3-0.1-0.5-0.2c-0.2,0-0.3,0-0.4-0.1
	c-0.7-0.2-1.4-0.3-2.1-0.4c-0.3,0-0.6-0.1-0.8-0.1c-0.9,0-1.7,0-2.6,0.1c-0.1,0-0.2,0-0.3,0c-0.9,0.1-1.8,0.3-2.7,0.5L12.4,104.4
	c-6,1.8-10.4,6.9-11.3,13.1C0.3,123.7,3.1,129.8,8.4,133.2z M312.4,49L245,116.4c-6.2,6.2-6.2,16.3,0,22.6c6.2,6.2,16.3,6.2,22.6,0
	L335,71.6l-76,257.1l-70.1-111l30.9-30.9c6.2-6.2,6.2-16.3,0-22.6c-6.2-6.2-16.3-6.2-22.6,0l-30.9,30.9L55.2,125L312.4,49z"/>
</svg>
