<svg xmlns="http://www.w3.org/2000/svg" viewBox="0 0 5.31 19.2"><defs><style>.cls-1{fill:#fff;stroke:#fff;}</style></defs><g id="Calque_2" data-name="Calque 2"><g id="Calque_1-2" data-name="Calque 1"><path class="cls-1" d="M4.81,2.49a2.08,2.08,0,0,1-2.16,2,2.07,2.07,0,0,1-2.15-2A2.07,2.07,0,0,1,2.65.5,2.08,2.08,0,0,1,4.81,2.49Z"/><path class="cls-1" d="M4.81,9.6a2.08,2.08,0,0,1-2.16,2A2.07,2.07,0,0,1,.5,9.6a2.07,2.07,0,0,1,2.15-2A2.08,2.08,0,0,1,4.81,9.6Z"/><path class="cls-1" d="M4.81,16.71a2.08,2.08,0,0,1-2.16,2,2,2,0,1,1,0-4A2.08,2.08,0,0,1,4.81,16.71Z"/></g></g></svg>