<svg xmlns="http://www.w3.org/2000/svg" viewBox="0 0 19.05 20.04"><defs><style>.cls-1{fill:#fff;}.cls-1,.cls-2{stroke:#fff;}.cls-2{fill:none;}</style></defs><g id="Calque_2" data-name="Calque 2"><g id="Calque_1-2" data-name="Calque 1"><path class="cls-1" d="M18.55,3.11a2.68,2.68,0,0,1-5.35,0,2.68,2.68,0,0,1,5.35,0Z"/><path class="cls-1" d="M5.85,10a2.65,2.65,0,0,1-2.68,2.61,2.61,2.61,0,1,1,0-5.22A2.65,2.65,0,0,1,5.85,10Z"/><path class="cls-1" d="M18.55,16.93a2.68,2.68,0,1,1-2.68-2.61A2.65,2.65,0,0,1,18.55,16.93Z"/><path class="cls-2" d="M5.64,9,13.4,4.5"/><path class="cls-2" d="M5.64,11.06l7.76,4.49"/></g></g></svg>