<svg width="6" height="20" viewBox="0 0 6 20" fill="none" xmlns="http://www.w3.org/2000/svg">
<path d="M5.4985 3.19976C5.4985 4.26846 4.565 5.18859 3.34496 5.18859C2.12491 5.18859 1.19141 4.26846 1.19141 3.19976C1.19141 2.13107 2.12491 1.21094 3.34496 1.21094C4.565 1.21094 5.4985 2.13107 5.4985 3.19976Z" fill="white" stroke="white"/>
<path d="M5.4985 10.3111C5.4985 11.3798 4.565 12.2999 3.34496 12.2999C2.12491 12.2999 1.19141 11.3798 1.19141 10.3111C1.19141 9.2424 2.12491 8.32227 3.34496 8.32227C4.565 8.32227 5.4985 9.2424 5.4985 10.3111Z" fill="white" stroke="white"/>
<path d="M5.4985 17.4205C5.4985 18.4892 4.565 19.4093 3.34496 19.4093C2.12492 19.4093 1.19141 18.4892 1.19141 17.4205C1.19141 16.3518 2.12492 15.4316 3.34496 15.4316C4.565 15.4316 5.4985 16.3518 5.4985 17.4205Z" fill="white" stroke="white"/>
</svg>
