<svg width="70" height="66" viewBox="0 0 70 66" fill="none" xmlns="http://www.w3.org/2000/svg">
<g clip-path="url(#clip0)">
<path d="M69.0391 36.8706L68.1028 36.0002V33.1539C68.1028 33.0185 68.0457 32.8889 67.9443 32.7933C67.8072 32.6638 64.4354 29.6102 50.473 27.5685C49.4754 26.9207 42.2492 22.4453 32.9704 22.4453C20.6502 22.4453 13.2415 26.0358 12.2634 26.5392L2.64258 27.5476C2.36861 27.5764 2.16169 27.7946 2.16169 28.0546V28.8633L0.158103 30.7536C0.0261884 30.8781 -0.0281451 31.0579 0.0140242 31.2298C0.0203766 31.2551 0.652646 33.8332 1.08813 36.2972C1.57524 39.0539 4.47843 39.7829 5.9453 39.7829C6.244 39.7829 6.4858 39.555 6.4858 39.2731C6.4858 38.9912 6.244 38.7631 5.9453 38.7631C5.80974 38.7631 2.6142 38.7332 2.15439 36.1299C1.79703 34.1082 1.30938 32.0137 1.13354 31.2757L3.08468 29.435C3.18591 29.3394 3.24295 29.21 3.24295 29.0745V28.5113L12.4911 27.5417C12.5645 27.5337 12.6352 27.5119 12.6992 27.4775C12.774 27.4377 20.3133 23.4653 32.9707 23.4653C42.4037 23.4653 49.8778 28.4196 49.9528 28.47C50.0213 28.5158 50.1016 28.5466 50.1839 28.5586C62.1932 30.3016 66.2239 32.8098 67.0219 33.3913V36.2136C67.0219 36.3501 67.081 36.4806 67.1834 36.576L67.8896 37.2334L67.1834 37.8906C66.9712 38.0879 66.969 38.4106 67.1781 38.6116C67.3872 38.8128 67.7292 38.8147 67.9423 38.6155L69.0391 37.5957C69.1414 37.5003 69.2006 37.3699 69.2006 37.2333C69.2006 37.0967 69.1416 36.9663 69.0391 36.8706Z" fill="#8CA6BA"/>
<path d="M6.24566 30.6883L3.00267 28.6485C2.75236 28.4917 2.41838 28.5554 2.25308 28.7899C2.08738 29.0246 2.15428 29.3407 2.40297 29.4971L5.64596 31.5368C5.73827 31.5946 5.84234 31.6225 5.9452 31.6225C6.11982 31.6225 6.29147 31.5428 6.39555 31.3954C6.56125 31.1609 6.49421 30.8447 6.24566 30.6883Z" fill="#8CA6BA"/>
<path d="M5.9456 30.6035H0.540497C0.241798 30.6035 0 30.8316 0 31.1134C0 31.3952 0.241798 31.6234 0.540497 31.6234H5.9456C6.2443 31.6234 6.4861 31.3952 6.4861 31.1134C6.4861 30.8316 6.2443 30.6035 5.9456 30.6035Z" fill="#8CA6BA"/>
<path d="M28.0536 26.2733L26.9726 24.1081C26.8454 23.8532 26.5224 23.742 26.2537 23.8641C25.9835 23.9842 25.8678 24.2879 25.995 24.5423L27.0762 26.7075C27.1679 26.8922 27.3621 27.0004 27.5654 27.0004C27.6425 27.0004 27.7206 26.9849 27.7949 26.9515C28.0652 26.8315 28.1808 26.5278 28.0536 26.2733Z" fill="#8CA6BA"/>
<path d="M30.808 30.6035H28.646C28.3473 30.6035 28.1055 30.8316 28.1055 31.1134C28.1055 31.3952 28.3473 31.6234 28.646 31.6234H30.808C31.1068 31.6234 31.3485 31.3952 31.3485 31.1134C31.3485 30.8316 31.1067 30.6035 30.808 30.6035Z" fill="#8CA6BA"/>
<path d="M12.4637 36.7227H12.4532C12.1545 36.7227 11.918 36.9508 11.918 37.2327C11.918 37.5146 12.1654 37.7425 12.4637 37.7425C12.7624 37.7425 13.0042 37.5146 13.0042 37.2327C13.0042 36.9508 12.7624 36.7227 12.4637 36.7227Z" fill="#8CA6BA"/>
<path d="M12.4319 31.623C9.15354 31.623 6.48633 34.139 6.48633 37.2323C6.48633 40.3257 9.15354 42.8413 12.4319 42.8413C15.7102 42.8413 18.3774 40.3258 18.3774 37.2323C18.3774 34.1389 15.7103 31.623 12.4319 31.623ZM12.4319 41.8215C9.74958 41.8215 7.56746 39.7629 7.56746 37.2323C7.56746 34.7015 9.74945 32.6429 12.4319 32.6429C15.1143 32.6429 17.2964 34.7016 17.2964 37.2323C17.2964 39.7628 15.1143 41.8215 12.4319 41.8215Z" fill="#8CA6BA"/>
<path d="M12.4311 33.6641C12.1324 33.6641 11.8906 33.8922 11.8906 34.1741V35.194C11.8906 35.4756 12.1324 35.7037 12.4311 35.7037C12.7298 35.7037 12.9716 35.4756 12.9716 35.194V34.1741C12.9716 33.8922 12.7298 33.6641 12.4311 33.6641Z" fill="#8CA6BA"/>
<path d="M12.4311 38.7617C12.1324 38.7617 11.8906 38.9898 11.8906 39.2718V40.2916C11.8906 40.5735 12.1324 40.8014 12.4311 40.8014C12.7298 40.8014 12.9716 40.5735 12.9716 40.2916V39.2718C12.9716 38.9898 12.7298 38.7617 12.4311 38.7617Z" fill="#8CA6BA"/>
<path d="M10.2699 36.7227H9.18893C8.8901 36.7227 8.64844 36.9508 8.64844 37.2327C8.64844 37.5146 8.8901 37.7425 9.18893 37.7425H10.2699C10.5686 37.7425 10.8104 37.5146 10.8104 37.2327C10.8104 36.9508 10.5686 36.7227 10.2699 36.7227Z" fill="#8CA6BA"/>
<path d="M15.6742 36.7227H14.5932C14.2945 36.7227 14.0527 36.9508 14.0527 37.2327C14.0527 37.5146 14.2945 37.7425 14.5932 37.7425H15.6742C15.9729 37.7425 16.2147 37.5146 16.2147 37.2327C16.2147 36.9508 15.9729 36.7227 15.6742 36.7227Z" fill="#8CA6BA"/>
<path d="M11.2845 35.4311L10.5202 34.7099C10.3092 34.5108 9.96711 34.5108 9.75599 34.7099C9.54488 34.9091 9.54488 35.232 9.75599 35.4311L10.5202 36.1521C10.6257 36.2517 10.7641 36.3015 10.9024 36.3015C11.0407 36.3015 11.1789 36.2517 11.2845 36.1521C11.4956 35.9529 11.4956 35.6302 11.2845 35.4311Z" fill="#8CA6BA"/>
<path d="M15.1069 39.0363L14.3426 38.3154C14.1315 38.1162 13.7894 38.1162 13.5783 38.3154C13.3671 38.5146 13.3671 38.8372 13.5783 39.0363L14.3426 39.7573C14.4481 39.8569 14.5865 39.9067 14.7248 39.9067C14.8631 39.9067 15.0013 39.8569 15.1069 39.7573C15.318 39.5584 15.318 39.2355 15.1069 39.0363Z" fill="#8CA6BA"/>
<path d="M11.2845 38.3154C11.0734 38.1162 10.7313 38.1162 10.5202 38.3154L9.75599 39.0363C9.54488 39.2355 9.54488 39.5582 9.75599 39.7573C9.86155 39.8569 9.99982 39.9067 10.1381 39.9067C10.2764 39.9067 10.4146 39.8569 10.5202 39.7573L11.2845 39.0363C11.4956 38.8372 11.4956 38.5146 11.2845 38.3154Z" fill="#8CA6BA"/>
<path d="M15.1069 34.7099C14.8958 34.5108 14.5537 34.5108 14.3426 34.7099L13.5783 35.4311C13.3671 35.6301 13.3671 35.9529 13.5783 36.1521C13.6838 36.2517 13.8221 36.3015 13.9604 36.3015C14.0988 36.3015 14.237 36.2517 14.3426 36.1521L15.1069 35.4311C15.318 35.232 15.318 34.9091 15.1069 34.7099Z" fill="#8CA6BA"/>
<path d="M54.6239 36.7227H54.6133C54.3146 36.7227 54.0781 36.9508 54.0781 37.2327C54.0781 37.5146 54.3252 37.7425 54.6239 37.7425C54.9227 37.7425 55.1644 37.5146 55.1644 37.2327C55.1644 36.9508 54.9227 36.7227 54.6239 36.7227Z" fill="#8CA6BA"/>
<path d="M54.59 31.623C51.3121 31.623 48.6445 34.139 48.6445 37.2323C48.6445 40.3257 51.3121 42.8413 54.59 42.8413C57.8689 42.8413 60.5356 40.3258 60.5356 37.2323C60.5356 34.1389 57.8689 31.623 54.59 31.623ZM54.59 41.8215C51.9086 41.8215 49.7255 39.7629 49.7255 37.2323C49.7255 34.7015 51.9086 32.6429 54.59 32.6429C57.2737 32.6429 59.4547 34.7016 59.4546 37.2323C59.4546 39.7628 57.2736 41.8215 54.59 41.8215Z" fill="#8CA6BA"/>
<path d="M54.5893 33.6641C54.2917 33.6641 54.0488 33.8922 54.0488 34.1741V35.194C54.0488 35.4756 54.2917 35.7037 54.5893 35.7037C54.8892 35.7037 55.13 35.4756 55.13 35.194V34.1741C55.13 33.8922 54.8892 33.6641 54.5893 33.6641Z" fill="#8CA6BA"/>
<path d="M54.5893 38.7617C54.2917 38.7617 54.0488 38.9898 54.0488 39.2718V40.2916C54.0488 40.5735 54.2917 40.8014 54.5893 40.8014C54.8892 40.8014 55.13 40.5735 55.13 40.2916V39.2718C55.13 38.9898 54.8892 38.7617 54.5893 38.7617Z" fill="#8CA6BA"/>
<path d="M52.4281 36.7227H51.3471C51.0495 36.7227 50.8066 36.9508 50.8066 37.2327C50.8066 37.5146 51.0495 37.7425 51.3471 37.7425H52.4281C52.728 37.7425 52.9686 37.5146 52.9686 37.2327C52.9686 36.9508 52.728 36.7227 52.4281 36.7227Z" fill="#8CA6BA"/>
<path d="M57.8323 36.7227H56.7513C56.4537 36.7227 56.2109 36.9508 56.2109 37.2327C56.2109 37.5146 56.4537 37.7425 56.7513 37.7425H57.8323C58.1321 37.7425 58.3729 37.5146 58.3729 37.2327C58.3729 36.9508 58.1322 36.7227 57.8323 36.7227Z" fill="#8CA6BA"/>
<path d="M53.4447 35.4311L52.6805 34.7099C52.4694 34.5108 52.1273 34.5108 51.9162 34.7099C51.705 34.9091 51.705 35.232 51.9162 35.4311L52.6805 36.1521C52.786 36.2517 52.9252 36.3015 53.0626 36.3015C53.2019 36.3015 53.3391 36.2517 53.4447 36.1521C53.6558 35.9529 53.6558 35.6302 53.4447 35.4311Z" fill="#8CA6BA"/>
<path d="M57.2651 39.0363L56.5008 38.3154C56.2897 38.1162 55.9476 38.1162 55.7365 38.3154C55.5253 38.5146 55.5253 38.8372 55.7365 39.0363L56.5008 39.7573C56.6063 39.8569 56.7456 39.9067 56.8829 39.9067C57.0222 39.9067 57.1596 39.8569 57.2651 39.7573C57.4762 39.5584 57.4762 39.2355 57.2651 39.0363Z" fill="#8CA6BA"/>
<path d="M53.4447 38.3154C53.2337 38.1162 52.8916 38.1162 52.6805 38.3154L51.9162 39.0363C51.705 39.2355 51.705 39.5582 51.9162 39.7573C52.0217 39.8569 52.1611 39.9067 52.2982 39.9067C52.4376 39.9067 52.5748 39.8569 52.6805 39.7573L53.4447 39.0363C53.6558 38.8372 53.6558 38.5146 53.4447 38.3154Z" fill="#8CA6BA"/>
<path d="M57.2651 34.7099C57.054 34.5108 56.7119 34.5108 56.5008 34.7099L55.7365 35.4311C55.5253 35.6301 55.5253 35.9529 55.7365 36.1521C55.842 36.2517 55.9814 36.3015 56.1187 36.3015C56.258 36.3015 56.3952 36.2517 56.5008 36.1521L57.2651 35.4311C57.4762 35.232 57.4762 34.9091 57.2651 34.7099Z" fill="#8CA6BA"/>
<path d="M48.105 27.5439C21.739 27.5439 18.3794 25.7442 18.1836 25.6226C17.9719 25.4543 17.6547 25.4653 17.4552 25.6535C17.2441 25.8527 17.2441 26.1754 17.4552 26.3746C17.6928 26.5986 20.5705 28.5637 48.1051 28.5637C48.4051 28.5637 48.6456 28.3356 48.6455 28.0538C48.6455 27.7719 48.4049 27.5439 48.105 27.5439Z" fill="#8CA6BA"/>
<path d="M48.1042 38.7617H18.9174C18.6188 38.7617 18.377 38.9898 18.377 39.2718C18.377 39.5537 18.6188 39.7816 18.9174 39.7816H48.1042C48.4041 39.7816 48.6447 39.5537 48.6447 39.2718C48.6447 38.9898 48.4041 38.7617 48.1042 38.7617Z" fill="#8CA6BA"/>
<path d="M68.6615 38.7617H61.0776C60.7799 38.7617 60.5371 38.9898 60.5371 39.2718C60.5371 39.5537 60.7799 39.7816 61.0776 39.7816H68.6615C68.9592 39.7816 69.202 39.5537 69.202 39.2718C69.202 38.9898 68.9592 38.7617 68.6615 38.7617Z" fill="#8CA6BA"/>
<path d="M67.7332 33.688L64.4902 32.6687C64.205 32.5801 63.9011 32.7241 63.8071 32.9909C63.7131 33.2585 63.8651 33.5471 64.148 33.6358L67.3911 34.6561C67.448 34.6741 67.5061 34.682 67.5621 34.682C67.7892 34.682 67.9991 34.5466 68.0752 34.3335C68.1702 34.0666 68.0161 33.7777 67.7332 33.688Z" fill="#8CA6BA"/>
<path d="M64.3198 30.9141C64.0222 30.9141 63.7793 31.1422 63.7793 31.424V33.1541C63.7793 33.4357 64.0222 33.6638 64.3198 33.6638C64.6196 33.6638 64.8603 33.4357 64.8603 33.1541V31.424C64.8603 31.1422 64.6196 30.9141 64.3198 30.9141Z" fill="#8CA6BA"/>
</g>
<defs>
<clipPath id="clip0">
<rect width="69.2009" height="65.2863" fill="white"/>
</clipPath>
</defs>
</svg>
