<svg id="Capa_1" data-name="Capa 1" xmlns="http://www.w3.org/2000/svg" viewBox="0 0 325.2 325.2"><defs><style>.cls-1,.cls-2{fill:#8ca6ba;}.cls-1{stroke:#8ca6ba;stroke-miterlimit:10;}</style></defs><path class="cls-1" d="M224.29,112.11c-41.91-18.71-78.42-1.67-87.59,0s-40.46,27.11-40.46,27.11c-76.74,2.91-78.82,31.69-78.82,31.69-13.77,7.92-6.26,25.86-6.26,25.86,6.26,8.34,22.52,7.09,22.52,7.09h1.4a30.1,30.1,0,0,1-1-7.52,30.45,30.45,0,0,1,60.89,0,30.1,30.1,0,0,1-1.14,8.15c41.1.38,95.38.76,136.74.63A30.46,30.46,0,1,1,289.18,204l1-.11c23.36-2.91,26.28-18.35,25.87-27.94s-24.42-27-34.67-33.25c-13.82-8.43-57.09-30.56-57.09-30.56"/><path class="cls-2" d="M64.55,170.91a25.43,25.43,0,0,0-25.44,25.44,25,25,0,0,0,1.28,7.58,25.27,25.27,0,0,0,48.16.51,25,25,0,0,0,1.44-8.1A25.43,25.43,0,0,0,64.55,170.91Z"/><path class="cls-2" d="M259.75,170.91a25.13,25.13,0,1,0,25.45,25.43A25.43,25.43,0,0,0,259.75,170.91Z"/></svg>