<svg id="Calque_1" data-name="Calque 1" xmlns="http://www.w3.org/2000/svg" viewBox="0 0 69 65"><defs><style>.cls-1{fill:none;}.cls-2{fill:#8ca6ba;}</style></defs><path class="cls-1" d="M26.84,26.63l-1.26-2.7a.74.74,0,0,1,0-.14,52,52,0,0,0-6.68,1.29,11.39,11.39,0,0,1,1.11.4C20.12,25.51,21.23,26.11,26.84,26.63Z"/><polygon class="cls-1" points="2.67 29.59 1.75 30.46 4.06 30.46 2.67 29.59"/><path class="cls-1" d="M12.33,32.5a4.6,4.6,0,1,0,0,9.18,4.6,4.6,0,1,0,0-9.18Zm1.15,2.79.76-.72a.57.57,0,0,1,.77,0,.49.49,0,0,1,0,.72l-.77.72a.56.56,0,0,1-.76,0A.49.49,0,0,1,13.48,35.29ZM11.79,34a.54.54,0,0,1,1.08,0v1a.54.54,0,0,1-1.08,0ZM8.55,37.09a.53.53,0,0,1,.54-.51h1.08a.51.51,0,1,1,0,1H9.09A.53.53,0,0,1,8.55,37.09Zm2.63,1.8-.76.72a.55.55,0,0,1-.38.15.54.54,0,0,1-.38-.15.48.48,0,0,1,0-.72l.76-.72a.56.56,0,0,1,.76,0A.48.48,0,0,1,11.18,38.89Zm0-2.88a.54.54,0,0,1-.38.15.55.55,0,0,1-.38-.15l-.76-.72a.48.48,0,0,1,0-.72.56.56,0,0,1,.76,0l.76.72A.48.48,0,0,1,11.18,36Zm1.69,4.14a.54.54,0,0,1-1.08,0v-1a.54.54,0,0,1,1.08,0Zm-.51-2.55a.53.53,0,0,1-.54-.51.52.52,0,0,1,.53-.51h0a.51.51,0,1,1,0,1Zm2.65,2a.58.58,0,0,1-.39.15.57.57,0,0,1-.38-.15l-.76-.72a.49.49,0,0,1,0-.72.56.56,0,0,1,.76,0l.77.72A.49.49,0,0,1,15,39.61Zm1.1-2.52a.53.53,0,0,1-.54.51H14.49a.51.51,0,1,1,0-1h1.08A.53.53,0,0,1,16.11,37.09Z"/><path class="cls-1" d="M66.92,33.25a11.92,11.92,0,0,0-2.16-1.17v.56l2.16.68Z"/><path class="cls-1" d="M28.05,26.74c4.21.34,10.58.63,20.2.66a33.52,33.52,0,0,0-15.38-4.08,57.14,57.14,0,0,0-6.24.34l1.39,3A.45.45,0,0,1,28.05,26.74Z"/><path class="cls-1" d="M66.92,36.07V34.4l-2.87-.91h0l-.11-.07-.07,0s0-.05-.07-.08a.35.35,0,0,0-.05-.08l0-.09s0-.06,0-.1v-1.4a62.8,62.8,0,0,0-13.6-3.21l0,0a.7.7,0,0,1-.14,0c-27.53,0-32.12-2.63-32.36-2.85a.47.47,0,0,1-.06-.09,31.23,31.23,0,0,0-4.87,1.85.58.58,0,0,1-.21.07l-9.25,1v.29l3,1.88,0,0,.08.07.06.08,0,.09a.38.38,0,0,1,0,.1s0,0,0,0,0,0,0,0a.29.29,0,0,1,0,.1.3.3,0,0,1,0,.1s0,0,0,0,0,0,0,0l-.14.11s0,0,0,0a.46.46,0,0,1-.23.06H1.12c.21.93.62,2.74.93,4.51.46,2.6,4.39,2.52,4.53,2.52h0a5.13,5.13,0,0,1-.2-1.42,5.79,5.79,0,0,1,5.94-5.61,5.8,5.8,0,0,1,6,5.61,5.2,5.2,0,0,1-.22,1.48l30.69,0a5.28,5.28,0,0,1-.21-1.44,6,6,0,0,1,11.9,0,5.27,5.27,0,0,1-.24,1.54l6.26.1a.77.77,0,0,1,.26-.48l1.07-1.16-.71-.66A.48.48,0,0,1,66.92,36.07ZM30.71,31.48H28.55a.51.51,0,1,1,0-1h2.16a.51.51,0,1,1,0,1Z"/><path class="cls-1" d="M54.49,32.5a4.6,4.6,0,1,0,4.86,4.59A4.74,4.74,0,0,0,54.49,32.5Zm1.15,2.79.76-.72a.56.56,0,0,1,.76,0,.48.48,0,0,1,0,.72L56.4,36a.55.55,0,0,1-.38.15.54.54,0,0,1-.38-.15A.49.49,0,0,1,55.64,35.29ZM54,34A.54.54,0,0,1,55,34v1a.54.54,0,0,1-1.08,0Zm-3.24,3.06a.53.53,0,0,1,.54-.51h1.08a.51.51,0,1,1,0,1H51.25A.53.53,0,0,1,50.71,37.09Zm2.63,1.8-.76.72a.55.55,0,0,1-.38.15.54.54,0,0,1-.38-.15.48.48,0,0,1,0-.72l.76-.72a.56.56,0,0,1,.76,0A.48.48,0,0,1,53.34,38.89Zm0-2.88a.54.54,0,0,1-.38.15.55.55,0,0,1-.38-.15l-.76-.72a.48.48,0,0,1,0-.72.56.56,0,0,1,.76,0l.76.72A.48.48,0,0,1,53.34,36ZM55,40.15a.54.54,0,0,1-1.08,0v-1a.54.54,0,0,1,1.08,0Zm-.51-2.55a.53.53,0,0,1-.54-.51.52.52,0,0,1,.53-.51h0a.51.51,0,1,1,0,1Zm2.64,2a.54.54,0,0,1-.38.15.57.57,0,0,1-.38-.15l-.76-.72a.49.49,0,0,1,0-.72.56.56,0,0,1,.76,0l.76.72A.48.48,0,0,1,57.16,39.61Zm1.11-2.52a.53.53,0,0,1-.54.51H56.65a.51.51,0,1,1,0-1h1.08A.53.53,0,0,1,58.27,37.09Z"/><path class="cls-2" d="M68.94,36.73,68,35.86V33a.48.48,0,0,0-.16-.36c-.13-.13-3.5-3.18-17.47-5.22a34.35,34.35,0,0,0-17.5-5.13c-12.32,0-19.73,3.59-20.71,4.1l-9.62,1a.53.53,0,0,0-.48.51v.81l-2,1.89a.46.46,0,0,0-.13.2s0,0,0,.07A.29.29,0,0,0-.1,31s0,.05,0,.07,0,0,0,.05S.55,33.69,1,36.15c.48,2.76,4.62,3.56,6.09,3.56h0a6.1,6.1,0,0,0,10.56-.12l31.45,0h.06a6.09,6.09,0,0,0,10.63.09h0l6.91.06a.48.48,0,0,0,.51-.49.46.46,0,0,0,0-.21,1,1,0,0,0,.25-.16l1.5-1.39a.49.49,0,0,0,0-.72Zm-4.18-4.65a11.92,11.92,0,0,1,2.16,1.17v.07l-2.16-.68ZM32.87,23.32A33.52,33.52,0,0,1,48.25,27.4c-9.62,0-16-.32-20.2-.66a.45.45,0,0,0,0-.11l-1.39-3A57.14,57.14,0,0,1,32.87,23.32Zm-7.33.47a.74.74,0,0,0,0,.14l1.26,2.7c-5.61-.52-6.72-1.12-6.87-1.15a11.39,11.39,0,0,0-1.11-.4A52,52,0,0,1,25.54,23.79ZM2.67,29.59l1.39.87H1.75Zm9.66,12.09a4.6,4.6,0,1,1,0-9.18,4.6,4.6,0,1,1,0,9.18Zm42.16,0a4.6,4.6,0,1,1,4.86-4.59A4.74,4.74,0,0,1,54.49,41.68Zm12.23-3.43a.77.77,0,0,0-.26.48l-6.26-.1a5.27,5.27,0,0,0,.24-1.54,6,6,0,0,0-11.9,0,5.28,5.28,0,0,0,.21,1.44l-30.69,0a5.2,5.2,0,0,0,.22-1.48,5.8,5.8,0,0,0-6-5.61,5.79,5.79,0,0,0-5.94,5.61,5.13,5.13,0,0,0,.2,1.42h0c-.14,0-4.07.08-4.53-2.52-.31-1.77-.72-3.58-.93-4.51H5.85a.46.46,0,0,0,.23-.06s0,0,0,0l.14-.11s0,0,0,0,0,0,0,0a.3.3,0,0,0,0-.1.29.29,0,0,0,0-.1s0,0,0,0,0,0,0,0a.38.38,0,0,0,0-.1l0-.09-.06-.08-.08-.07,0,0-3-1.88v-.29l9.25-1a.58.58,0,0,0,.21-.07,31.23,31.23,0,0,1,4.87-1.85.47.47,0,0,0,.06.09c.24.22,4.83,2.85,32.36,2.85a.7.7,0,0,0,.14,0l0,0a62.8,62.8,0,0,1,13.6,3.21V33s0,.07,0,.1l0,.09a.35.35,0,0,1,.05.08s0,.06.07.08l.07,0,.11.07h0l2.87.91v1.67a.48.48,0,0,0,.16.36l.71.66Z"/><path class="cls-2" d="M30.71,30.46H28.55a.51.51,0,1,0,0,1h2.16a.51.51,0,1,0,0-1Z"/><path class="cls-2" d="M12.36,36.58h0a.52.52,0,0,0-.53.51.53.53,0,0,0,.54.51.51.51,0,1,0,0-1Z"/><path class="cls-2" d="M12.33,35.56a.53.53,0,0,0,.54-.51V34a.54.54,0,0,0-1.08,0v1A.53.53,0,0,0,12.33,35.56Z"/><path class="cls-2" d="M12.33,38.62a.53.53,0,0,0-.54.51v1a.54.54,0,0,0,1.08,0v-1A.53.53,0,0,0,12.33,38.62Z"/><path class="cls-2" d="M10.71,37.09a.53.53,0,0,0-.54-.51H9.09a.51.51,0,1,0,0,1h1.08A.53.53,0,0,0,10.71,37.09Z"/><path class="cls-2" d="M14.49,36.58a.51.51,0,1,0,0,1h1.08a.51.51,0,1,0,0-1Z"/><path class="cls-2" d="M10.42,34.57a.56.56,0,0,0-.76,0,.48.48,0,0,0,0,.72l.76.72a.55.55,0,0,0,.38.15.54.54,0,0,0,.38-.15.48.48,0,0,0,0-.72Z"/><path class="cls-2" d="M14.24,38.17a.56.56,0,0,0-.76,0,.49.49,0,0,0,0,.72l.76.72a.57.57,0,0,0,.38.15.58.58,0,0,0,.39-.15.49.49,0,0,0,0-.72Z"/><path class="cls-2" d="M10.42,38.17l-.76.72a.48.48,0,0,0,0,.72.54.54,0,0,0,.38.15.55.55,0,0,0,.38-.15l.76-.72a.48.48,0,0,0,0-.72A.56.56,0,0,0,10.42,38.17Z"/><path class="cls-2" d="M13.86,36.16a.54.54,0,0,0,.38-.15l.77-.72a.49.49,0,0,0,0-.72.57.57,0,0,0-.77,0l-.76.72a.49.49,0,0,0,0,.72A.54.54,0,0,0,13.86,36.16Z"/><path class="cls-2" d="M54.52,36.58h0a.52.52,0,0,0-.53.51.54.54,0,1,0,.54-.51Z"/><path class="cls-2" d="M54.49,35.56a.53.53,0,0,0,.54-.51V34A.54.54,0,0,0,54,34v1A.53.53,0,0,0,54.49,35.56Z"/><path class="cls-2" d="M54.49,38.62a.53.53,0,0,0-.54.51v1a.54.54,0,0,0,1.08,0v-1A.53.53,0,0,0,54.49,38.62Z"/><path class="cls-2" d="M52.87,37.09a.53.53,0,0,0-.54-.51H51.25a.51.51,0,1,0,0,1h1.08A.53.53,0,0,0,52.87,37.09Z"/><path class="cls-2" d="M56.65,36.58a.51.51,0,1,0,0,1h1.08a.51.51,0,1,0,0-1Z"/><path class="cls-2" d="M52.58,34.57a.56.56,0,0,0-.76,0,.48.48,0,0,0,0,.72l.76.72a.55.55,0,0,0,.38.15.54.54,0,0,0,.38-.15.48.48,0,0,0,0-.72Z"/><path class="cls-2" d="M56.4,38.17a.56.56,0,0,0-.76,0,.49.49,0,0,0,0,.72l.76.72a.57.57,0,0,0,.38.15.54.54,0,0,0,.38-.15.48.48,0,0,0,0-.72Z"/><path class="cls-2" d="M52.58,38.17l-.76.72a.48.48,0,0,0,0,.72.54.54,0,0,0,.38.15.55.55,0,0,0,.38-.15l.76-.72a.48.48,0,0,0,0-.72A.56.56,0,0,0,52.58,38.17Z"/><path class="cls-2" d="M56,36.16A.55.55,0,0,0,56.4,36l.76-.72a.48.48,0,0,0,0-.72.56.56,0,0,0-.76,0l-.76.72a.49.49,0,0,0,0,.72A.54.54,0,0,0,56,36.16Z"/></svg>