<svg id="Calque_1" data-name="Calque 1" xmlns="http://www.w3.org/2000/svg" viewBox="0 0 400 250"><defs><style>.cls-1{fill:#fff;}.cls-2{fill:none;stroke:#fff;stroke-miterlimit:10;stroke-width:5.5px;}</style></defs><path class="cls-1" d="M160.09,79a2.13,2.13,0,0,1,1.45.48,1.63,1.63,0,0,1,.55,1.27v20h4v-20a1.63,1.63,0,0,1,.55-1.27,2.13,2.13,0,0,1,1.45-.48H170a.63.63,0,0,1,.51.2.77.77,0,0,1,.18.52v46.76a.77.77,0,0,1-.18.52.61.61,0,0,1-.51.21h-1.93a1.88,1.88,0,0,1-1.5-.57,2.16,2.16,0,0,1-.5-1.47V104.61h-4V125.2a2.16,2.16,0,0,1-.5,1.47,1.88,1.88,0,0,1-1.5.57h-1.93a.61.61,0,0,1-.51-.21.77.77,0,0,1-.18-.52V79.75a.77.77,0,0,1,.18-.52.63.63,0,0,1,.51-.2Z"/><path class="cls-1" d="M205.09,79a.79.79,0,0,1,.52.17.64.64,0,0,1,.21.52v1.17a2.11,2.11,0,0,1-.48,1.44,1.61,1.61,0,0,1-1.28.55h-4.23v18.57h4.58a.73.73,0,0,1,.51.17.61.61,0,0,1,.21.51v1.17a2.13,2.13,0,0,1-.48,1.45,1.61,1.61,0,0,1-1.28.55h-3.54v18.08h4.23a1.61,1.61,0,0,1,1.28.55,2.13,2.13,0,0,1,.48,1.45v1.17a.61.61,0,0,1-.21.51.75.75,0,0,1-.52.18H195.9a.61.61,0,0,1-.51-.21.77.77,0,0,1-.18-.52V79.75a.77.77,0,0,1,.18-.52.63.63,0,0,1,.51-.2Z"/><path class="cls-1" d="M230.06,127.24a.64.64,0,0,1-.52-.21.81.81,0,0,1-.17-.52V79.75a.81.81,0,0,1,.17-.52.67.67,0,0,1,.52-.2H232a2.13,2.13,0,0,1,1.45.48,1.63,1.63,0,0,1,.55,1.27v42.6h4.23a1.61,1.61,0,0,1,1.28.55,2.13,2.13,0,0,1,.48,1.45v1.17a.61.61,0,0,1-.21.51.75.75,0,0,1-.52.18Z"/><path class="cls-1" d="M161.55,137.11a1.59,1.59,0,0,1,.55-1.27,2.12,2.12,0,0,1,1.44-.48h1.93a.64.64,0,0,1,.52.2.81.81,0,0,1,.17.52v46.24a1.25,1.25,0,0,1-1.24,1.25h-2.13a1.25,1.25,0,0,1-1.24-1.25Z"/><rect class="cls-2" x="134" y="66" width="132" height="132"/><path class="cls-1" d="M193.39,140.73a5.58,5.58,0,0,1,1.74-4.34,7,7,0,0,1,4.87-1.58,8.23,8.23,0,0,1,2.7.41,6,6,0,0,1,2.11,1.19,5.1,5.1,0,0,1,1.34,1.86,6.17,6.17,0,0,1,.46,2.46v37.46a5.56,5.56,0,0,1-1.74,4.34,7,7,0,0,1-4.87,1.59,8.22,8.22,0,0,1-2.72-.42,5.93,5.93,0,0,1-2.08-1.19,5,5,0,0,1-1.35-1.86,6.35,6.35,0,0,1-.46-2.46Zm8.61,0a2.25,2.25,0,0,0-.48-1.5,2.29,2.29,0,0,0-3,0,2.21,2.21,0,0,0-.5,1.5v37.46a2.23,2.23,0,0,0,.48,1.5,2.29,2.29,0,0,0,3,0,2.19,2.19,0,0,0,.5-1.5Z"/><path class="cls-1" d="M239.19,151.5a1.88,1.88,0,0,1-1.5-.57,2.09,2.09,0,0,1-.5-1.46v-9.23a2.21,2.21,0,0,0-.5-1.5,2.3,2.3,0,0,0-3,0,2.25,2.25,0,0,0-.48,1.5,40.26,40.26,0,0,0,.35,5.65,36.49,36.49,0,0,0,1,4.65,41.09,41.09,0,0,0,1.39,4c.52,1.27,1,2.53,1.57,3.78s1.05,2.53,1.56,3.84a37.54,37.54,0,0,1,1.4,4.27,39.19,39.19,0,0,1,1,5.06,48.2,48.2,0,0,1,.36,6.2,6.24,6.24,0,0,1-.46,2.46A5.18,5.18,0,0,1,240,182a6.2,6.2,0,0,1-2.09,1.19,8.61,8.61,0,0,1-2.71.41,7,7,0,0,1-4.87-1.59,5.56,5.56,0,0,1-1.74-4.33V167.17a.81.81,0,0,1,.17-.52.64.64,0,0,1,.52-.2h1.93a1.94,1.94,0,0,1,1.5.56,2.16,2.16,0,0,1,.5,1.47v9.23a2.16,2.16,0,0,0,.49,1.49,2.29,2.29,0,0,0,3,0,2.21,2.21,0,0,0,.48-1.49,40.83,40.83,0,0,0-.64-7.72,40.38,40.38,0,0,0-1.6-6q-1-2.72-2.06-5.14t-2.07-5.11a40.93,40.93,0,0,1-1.6-5.92,39.28,39.28,0,0,1-.64-7.58,6,6,0,0,1,.47-2.46,5.16,5.16,0,0,1,1.34-1.86,6.08,6.08,0,0,1,2.08-1.19,8.49,8.49,0,0,1,2.72-.41,7,7,0,0,1,4.87,1.58,5.59,5.59,0,0,1,1.74,4.34v10.54a.73.73,0,0,1-.17.51.61.61,0,0,1-.51.21Z"/></svg>