<svg width="26" height="31" viewBox="0 0 26 31" fill="none" xmlns="http://www.w3.org/2000/svg">
<path d="M21.3333 11.7228C21.3333 20.942 25.5 20.1039 25.5 24.2945C25.5 24.2945 25.5 25.9707 23.8333 25.9707H2.16667C0.5 25.9707 0.5 24.2945 0.5 24.2945C0.5 20.1039 4.66667 20.942 4.66667 11.7228C4.66667 7.09477 8.3975 3.34171 13 3.34171C17.6025 3.34171 21.3333 7.09477 21.3333 11.7228Z" fill="white"/>
<path d="M15.5 3.34309C15.5 1.95434 14.38 0.828756 13 0.828756C11.6192 0.828756 10.5 1.95434 10.5 3.34309C10.5 4.73184 11.6192 5.85742 13 5.85742C14.38 5.85742 15.5 4.73184 15.5 3.34309Z" fill="white"/>
<path d="M12.9993 31C14.8402 31 16.3327 29.4989 16.3327 27.6476H9.66602C9.66602 29.4989 11.1585 31 12.9993 31Z" fill="white"/>
</svg>
