<svg width="20" height="21" viewBox="0 0 20 21" fill="none" xmlns="http://www.w3.org/2000/svg">
<path d="M18.5459 3.10867C18.5459 4.53959 17.3585 5.71734 15.8716 5.71734C14.3847 5.71734 13.1973 4.53959 13.1973 3.10867C13.1973 1.67774 14.3847 0.5 15.8716 0.5C17.3585 0.5 18.5459 1.67774 18.5459 3.10867Z" fill="white" stroke="white"/>
<path d="M5.84871 10.0208C5.84871 11.4517 4.66127 12.6294 3.17435 12.6294C1.68744 12.6294 0.5 11.4517 0.5 10.0208C0.5 8.58985 1.68744 7.41211 3.17435 7.41211C4.66127 7.41211 5.84871 8.58985 5.84871 10.0208Z" fill="white" stroke="white"/>
<path d="M18.5459 16.9329C18.5459 18.3638 17.3585 19.5415 15.8716 19.5415C14.3847 19.5415 13.1973 18.3638 13.1973 16.9329C13.1973 15.502 14.3847 14.3242 15.8716 14.3242C17.3585 14.3242 18.5459 15.502 18.5459 16.9329Z" fill="white" stroke="white"/>
<path d="M5.64453 8.98639L13.404 4.49609" stroke="white"/>
<path d="M5.64453 11.0586L13.404 15.5489" stroke="white"/>
</svg>
